<svg xmlns="http://www.w3.org/2000/svg" width="24" height="24" viewBox="0 0 24 24" fill="currentColor">
    <path d="M24 4.557c-.883.392-1.832.656-2.828.775 1.017-.609 1.798-1.574 2.165-2.724-.951.564-2.005.974-3.127 1.195-.897-.957-2.178-1.555-3.594-1.555-3.179 0-5.515 2.966-4.797 6.045-4.091-.205-7.719-2.165-10.148-5.144-1.29 2.213-.669 5.108 1.523 6.574-.806-.026-1.566-.247-2.229-.616v.064c0 2.298 1.634 4.212 3.791 4.649-.69.188-1.43.23-2.187.084.606 1.882 2.362 3.256 4.448 3.294-1.716 1.34-3.873 2.14-6.224 2.14-.404 0-.802-.023-1.195-.07 2.206 1.413 4.833 2.239 7.646 2.239 9.165 0 14.176-7.599 14.176-14.177 0-.215-.005-.428-.014-.64.973-.699 1.816-1.575 2.488-2.572z"/>
</svg>
